# xmcd
#
# Track frame offsets: 
#        150
#        19852
#        37272
#        55800
#        68985
#        81527
#        100882
#        118272
#        139790
#        158757
#        173517
#
# Disc length: 2607 seconds
#
# Revision: 2
# Processed by: cddbd v1.5.1PL0 Copyright (c) Steve Scherf et al.
# Submitted via: ExactAudioCopy v0.95a5
#
DISCID=980a2d0b
DTITLE=Lunasa - The Mery Sisters of Faith
DYEAR=2001
DGENRE=Celtic
TTITLE0=Aoibhneas
TTITLE1=Donogh and Mike's
TTITLE2=Killarney Boys of Pleasure
TTITLE3=The Merry Sisters of Fate
TTITLE4=Iníon Ni Scannláin
TTITLE5=Casu
TTITLE6=Páistín Fionn
TTITLE7=The Minor Bee
TTITLE8=Scully's
TTITLE9=Return from Fingal
TTITLE10=Morning Nightcap
EXTD=
EXTT0=
EXTT1=
EXTT2=
EXTT3=
EXTT4=
EXTT5=
EXTT6=
EXTT7=
EXTT8=
EXTT9=
EXTT10=
PLAYORDER=
